<svg id="visual" viewBox="0 0 3000 600" width="3000" height="600" xmlns="http://www.w3.org/2000/svg" xmlns:xlink="http://www.w3.org/1999/xlink" version="1.1"><path d="M0 384L33.3 393C66.7 402 133.3 420 200 433.7C266.7 447.3 333.3 456.7 400 447.5C466.7 438.3 533.3 410.7 600 399.2C666.7 387.7 733.3 392.3 800 400.5C866.7 408.7 933.3 420.3 1000 435C1066.7 449.7 1133.3 467.3 1200 466.2C1266.7 465 1333.3 445 1400 429.5C1466.7 414 1533.3 403 1600 408.5C1666.7 414 1733.3 436 1800 447.8C1866.7 459.7 1933.3 461.3 2000 466.5C2066.7 471.7 2133.3 480.3 2200 470.3C2266.7 460.3 2333.3 431.7 2400 413.2C2466.7 394.7 2533.3 386.3 2600 389.3C2666.7 392.3 2733.3 406.7 2800 411.7C2866.7 416.7 2933.3 412.3 2966.7 410.2L3000 408L3000 601L2966.7 601C2933.3 601 2866.7 601 2800 601C2733.3 601 2666.7 601 2600 601C2533.3 601 2466.7 601 2400 601C2333.3 601 2266.7 601 2200 601C2133.3 601 2066.7 601 2000 601C1933.3 601 1866.7 601 1800 601C1733.3 601 1666.7 601 1600 601C1533.3 601 1466.7 601 1400 601C1333.3 601 1266.7 601 1200 601C1133.3 601 1066.7 601 1000 601C933.3 601 866.7 601 800 601C733.3 601 666.7 601 600 601C533.3 601 466.7 601 400 601C333.3 601 266.7 601 200 601C133.3 601 66.7 601 33.3 601L0 601Z" fill="#1b1c17"></path><path d="M0 477L33.3 469C66.7 461 133.3 445 200 442.7C266.7 440.3 333.3 451.7 400 455.2C466.7 458.7 533.3 454.3 600 450.2C666.7 446 733.3 442 800 447.7C866.7 453.3 933.3 468.7 1000 465.7C1066.7 462.7 1133.3 441.3 1200 432C1266.7 422.7 1333.3 425.3 1400 427.3C1466.7 429.3 1533.3 430.7 1600 438C1666.7 445.3 1733.3 458.7 1800 457.8C1866.7 457 1933.3 442 2000 442.7C2066.7 443.3 2133.3 459.7 2200 461.3C2266.7 463 2333.3 450 2400 446.2C2466.7 442.3 2533.3 447.7 2600 443.2C2666.7 438.7 2733.3 424.3 2800 421.3C2866.7 418.3 2933.3 426.7 2966.7 430.8L3000 435L3000 601L2966.7 601C2933.3 601 2866.7 601 2800 601C2733.3 601 2666.7 601 2600 601C2533.3 601 2466.7 601 2400 601C2333.3 601 2266.7 601 2200 601C2133.3 601 2066.7 601 2000 601C1933.3 601 1866.7 601 1800 601C1733.3 601 1666.7 601 1600 601C1533.3 601 1466.7 601 1400 601C1333.3 601 1266.7 601 1200 601C1133.3 601 1066.7 601 1000 601C933.3 601 866.7 601 800 601C733.3 601 666.7 601 600 601C533.3 601 466.7 601 400 601C333.3 601 266.7 601 200 601C133.3 601 66.7 601 33.3 601L0 601Z" fill="#323623"></path><path d="M0 525L33.3 517C66.7 509 133.3 493 200 481.5C266.7 470 333.3 463 400 457.8C466.7 452.7 533.3 449.3 600 455.5C666.7 461.7 733.3 477.3 800 486.2C866.7 495 933.3 497 1000 495.2C1066.7 493.3 1133.3 487.7 1200 484.2C1266.7 480.7 1333.3 479.3 1400 475.8C1466.7 472.3 1533.3 466.7 1600 471C1666.7 475.3 1733.3 489.7 1800 488.8C1866.7 488 1933.3 472 2000 460.3C2066.7 448.7 2133.3 441.3 2200 449.7C2266.7 458 2333.3 482 2400 486.8C2466.7 491.7 2533.3 477.3 2600 480C2666.7 482.7 2733.3 502.3 2800 507C2866.7 511.7 2933.3 501.3 2966.7 496.2L3000 491L3000 601L2966.7 601C2933.3 601 2866.7 601 2800 601C2733.3 601 2666.7 601 2600 601C2533.3 601 2466.7 601 2400 601C2333.3 601 2266.7 601 2200 601C2133.3 601 2066.7 601 2000 601C1933.3 601 1866.7 601 1800 601C1733.3 601 1666.7 601 1600 601C1533.3 601 1466.7 601 1400 601C1333.3 601 1266.7 601 1200 601C1133.3 601 1066.7 601 1000 601C933.3 601 866.7 601 800 601C733.3 601 666.7 601 600 601C533.3 601 466.7 601 400 601C333.3 601 266.7 601 200 601C133.3 601 66.7 601 33.3 601L0 601Z" fill="#4a5230"></path><path d="M0 498L33.3 494C66.7 490 133.3 482 200 478.7C266.7 475.3 333.3 476.7 400 476C466.7 475.3 533.3 472.7 600 483.2C666.7 493.7 733.3 517.3 800 521.3C866.7 525.3 933.3 509.7 1000 499.3C1066.7 489 1133.3 484 1200 483.3C1266.7 482.7 1333.3 486.3 1400 485.8C1466.7 485.3 1533.3 480.7 1600 477C1666.7 473.3 1733.3 470.7 1800 479.7C1866.7 488.7 1933.3 509.3 2000 509.3C2066.7 509.3 2133.3 488.7 2200 477.2C2266.7 465.7 2333.3 463.3 2400 468.3C2466.7 473.3 2533.3 485.7 2600 491.8C2666.7 498 2733.3 498 2800 494.5C2866.7 491 2933.3 484 2966.7 480.5L3000 477L3000 601L2966.7 601C2933.3 601 2866.7 601 2800 601C2733.3 601 2666.7 601 2600 601C2533.3 601 2466.7 601 2400 601C2333.3 601 2266.7 601 2200 601C2133.3 601 2066.7 601 2000 601C1933.3 601 1866.7 601 1800 601C1733.3 601 1666.7 601 1600 601C1533.3 601 1466.7 601 1400 601C1333.3 601 1266.7 601 1200 601C1133.3 601 1066.7 601 1000 601C933.3 601 866.7 601 800 601C733.3 601 666.7 601 600 601C533.3 601 466.7 601 400 601C333.3 601 266.7 601 200 601C133.3 601 66.7 601 33.3 601L0 601Z" fill="#63703d"></path><path d="M0 518L33.3 520.2C66.7 522.3 133.3 526.7 200 531.3C266.7 536 333.3 541 400 539.7C466.7 538.3 533.3 530.7 600 528.5C666.7 526.3 733.3 529.7 800 535.8C866.7 542 933.3 551 1000 554.8C1066.7 558.7 1133.3 557.3 1200 551.8C1266.7 546.3 1333.3 536.7 1400 534C1466.7 531.3 1533.3 535.7 1600 532.7C1666.7 529.7 1733.3 519.3 1800 515.3C1866.7 511.3 1933.3 513.7 2000 519.5C2066.7 525.3 2133.3 534.7 2200 532.8C2266.7 531 2333.3 518 2400 512.5C2466.7 507 2533.3 509 2600 515.8C2666.7 522.7 2733.3 534.3 2800 538.8C2866.7 543.3 2933.3 540.7 2966.7 539.3L3000 538L3000 601L2966.7 601C2933.3 601 2866.7 601 2800 601C2733.3 601 2666.7 601 2600 601C2533.3 601 2466.7 601 2400 601C2333.3 601 2266.7 601 2200 601C2133.3 601 2066.7 601 2000 601C1933.3 601 1866.7 601 1800 601C1733.3 601 1666.7 601 1600 601C1533.3 601 1466.7 601 1400 601C1333.3 601 1266.7 601 1200 601C1133.3 601 1066.7 601 1000 601C933.3 601 866.7 601 800 601C733.3 601 666.7 601 600 601C533.3 601 466.7 601 400 601C333.3 601 266.7 601 200 601C133.3 601 66.7 601 33.3 601L0 601Z" fill="#7e8f4a"></path><path d="M0 573L33.3 569.5C66.7 566 133.3 559 200 556.7C266.7 554.3 333.3 556.7 400 552.5C466.7 548.3 533.3 537.7 600 539.5C666.7 541.3 733.3 555.7 800 556.8C866.7 558 933.3 546 1000 546.7C1066.7 547.3 1133.3 560.7 1200 565.8C1266.7 571 1333.3 568 1400 559.5C1466.7 551 1533.3 537 1600 538.3C1666.7 539.7 1733.3 556.3 1800 562.3C1866.7 568.3 1933.3 563.7 2000 562.5C2066.7 561.3 2133.3 563.7 2200 561.3C2266.7 559 2333.3 552 2400 547.3C2466.7 542.7 2533.3 540.3 2600 543C2666.7 545.7 2733.3 553.3 2800 556.2C2866.7 559 2933.3 557 2966.7 556L3000 555L3000 601L2966.7 601C2933.3 601 2866.7 601 2800 601C2733.3 601 2666.7 601 2600 601C2533.3 601 2466.7 601 2400 601C2333.3 601 2266.7 601 2200 601C2133.3 601 2066.7 601 2000 601C1933.3 601 1866.7 601 1800 601C1733.3 601 1666.7 601 1600 601C1533.3 601 1466.7 601 1400 601C1333.3 601 1266.7 601 1200 601C1133.3 601 1066.7 601 1000 601C933.3 601 866.7 601 800 601C733.3 601 666.7 601 600 601C533.3 601 466.7 601 400 601C333.3 601 266.7 601 200 601C133.3 601 66.7 601 33.3 601L0 601Z" fill="#99af58"></path><path d="M0 583L33.3 576.7C66.7 570.3 133.3 557.7 200 555C266.7 552.3 333.3 559.7 400 565.7C466.7 571.7 533.3 576.3 600 578.7C666.7 581 733.3 581 800 581.8C866.7 582.7 933.3 584.3 1000 583.8C1066.7 583.3 1133.3 580.7 1200 581.5C1266.7 582.3 1333.3 586.7 1400 582.2C1466.7 577.7 1533.3 564.3 1600 558.5C1666.7 552.7 1733.3 554.3 1800 560.7C1866.7 567 1933.3 578 2000 582.7C2066.7 587.3 2133.3 585.7 2200 581.7C2266.7 577.7 2333.3 571.3 2400 567.3C2466.7 563.3 2533.3 561.7 2600 561.7C2666.7 561.7 2733.3 563.3 2800 568.2C2866.7 573 2933.3 581 2966.7 585L3000 589L3000 601L2966.7 601C2933.3 601 2866.7 601 2800 601C2733.3 601 2666.7 601 2600 601C2533.3 601 2466.7 601 2400 601C2333.3 601 2266.7 601 2200 601C2133.3 601 2066.7 601 2000 601C1933.3 601 1866.7 601 1800 601C1733.3 601 1666.7 601 1600 601C1533.3 601 1466.7 601 1400 601C1333.3 601 1266.7 601 1200 601C1133.3 601 1066.7 601 1000 601C933.3 601 866.7 601 800 601C733.3 601 666.7 601 600 601C533.3 601 466.7 601 400 601C333.3 601 266.7 601 200 601C133.3 601 66.7 601 33.3 601L0 601Z" fill="#b6d166"></path></svg>