<svg id="visual" viewBox="0 0 3000 600" width="3000" height="600" xmlns="http://www.w3.org/2000/svg" xmlns:xlink="http://www.w3.org/1999/xlink" version="1.1"><path d="M0 481L167 437L333 456L500 434L667 492L833 410L1000 470L1167 435L1333 457L1500 443L1667 465L1833 431L2000 408L2167 464L2333 434L2500 450L2667 446L2833 471L3000 448L3000 601L2833 601L2667 601L2500 601L2333 601L2167 601L2000 601L1833 601L1667 601L1500 601L1333 601L1167 601L1000 601L833 601L667 601L500 601L333 601L167 601L0 601Z" fill="#a80f5e"></path><path d="M0 437L167 494L333 484L500 500L667 480L833 510L1000 468L1167 516L1333 434L1500 466L1667 501L1833 461L2000 438L2167 512L2333 458L2500 455L2667 476L2833 468L3000 455L3000 601L2833 601L2667 601L2500 601L2333 601L2167 601L2000 601L1833 601L1667 601L1500 601L1333 601L1167 601L1000 601L833 601L667 601L500 601L333 601L167 601L0 601Z" fill="#950a52"></path><path d="M0 466L167 504L333 541L500 469L667 515L833 517L1000 521L1167 514L1333 513L1500 532L1667 499L1833 497L2000 535L2167 518L2333 467L2500 536L2667 515L2833 525L3000 485L3000 601L2833 601L2667 601L2500 601L2333 601L2167 601L2000 601L1833 601L1667 601L1500 601L1333 601L1167 601L1000 601L833 601L667 601L500 601L333 601L167 601L0 601Z" fill="#820546"></path><path d="M0 505L167 510L333 547L500 548L667 506L833 504L1000 505L1167 509L1333 522L1500 554L1667 515L1833 535L2000 520L2167 537L2333 521L2500 551L2667 550L2833 521L3000 507L3000 601L2833 601L2667 601L2500 601L2333 601L2167 601L2000 601L1833 601L1667 601L1500 601L1333 601L1167 601L1000 601L833 601L667 601L500 601L333 601L167 601L0 601Z" fill="#70023b"></path><path d="M0 569L167 568L333 563L500 573L667 548L833 549L1000 561L1167 554L1333 559L1500 550L1667 549L1833 555L2000 578L2167 550L2333 567L2500 560L2667 543L2833 575L3000 556L3000 601L2833 601L2667 601L2500 601L2333 601L2167 601L2000 601L1833 601L1667 601L1500 601L1333 601L1167 601L1000 601L833 601L667 601L500 601L333 601L167 601L0 601Z" fill="#5e0030"></path></svg>