<svg id="visual" viewBox="0 0 3000 540" width="3000" height="540" xmlns="http://www.w3.org/2000/svg" xmlns:xlink="http://www.w3.org/1999/xlink" version="1.1"><path d="M0 341L22.7 339.2C45.3 337.3 90.7 333.7 136.2 342.7C181.7 351.7 227.3 373.3 272.8 369.2C318.3 365 363.7 335 409 326C454.3 317 499.7 329 545.2 345.2C590.7 361.3 636.3 381.7 681.8 382.5C727.3 383.3 772.7 364.7 818.2 356.5C863.7 348.3 909.3 350.7 954.8 349.7C1000.3 348.7 1045.7 344.3 1091 349.8C1136.3 355.3 1181.7 370.7 1227.2 375.8C1272.7 381 1318.3 376 1363.8 365.3C1409.3 354.7 1454.7 338.3 1500 342C1545.3 345.7 1590.7 369.3 1636.2 380.3C1681.7 391.3 1727.3 389.7 1772.8 387.3C1818.3 385 1863.7 382 1909 381.8C1954.3 381.7 1999.7 384.3 2045.2 382C2090.7 379.7 2136.3 372.3 2181.8 373.7C2227.3 375 2272.7 385 2318.2 387.8C2363.7 390.7 2409.3 386.3 2454.8 386C2500.3 385.7 2545.7 389.3 2591 382.7C2636.3 376 2681.7 359 2727.2 356.8C2772.7 354.7 2818.3 367.3 2863.8 365.3C2909.3 363.3 2954.7 346.7 2977.3 338.3L3000 330L3000 541L2977.3 541C2954.7 541 2909.3 541 2863.8 541C2818.3 541 2772.7 541 2727.2 541C2681.7 541 2636.3 541 2591 541C2545.7 541 2500.3 541 2454.8 541C2409.3 541 2363.7 541 2318.2 541C2272.7 541 2227.3 541 2181.8 541C2136.3 541 2090.7 541 2045.2 541C1999.7 541 1954.3 541 1909 541C1863.7 541 1818.3 541 1772.8 541C1727.3 541 1681.7 541 1636.2 541C1590.7 541 1545.3 541 1500 541C1454.7 541 1409.3 541 1363.8 541C1318.3 541 1272.7 541 1227.2 541C1181.7 541 1136.3 541 1091 541C1045.7 541 1000.3 541 954.8 541C909.3 541 863.7 541 818.2 541C772.7 541 727.3 541 681.8 541C636.3 541 590.7 541 545.2 541C499.7 541 454.3 541 409 541C363.7 541 318.3 541 272.8 541C227.3 541 181.7 541 136.2 541C90.7 541 45.3 541 22.7 541L0 541Z" fill="#021d09"></path><path d="M0 417L22.7 404.7C45.3 392.3 90.7 367.7 136.2 360.3C181.7 353 227.3 363 272.8 369.8C318.3 376.7 363.7 380.3 409 380.5C454.3 380.7 499.7 377.3 545.2 376.7C590.7 376 636.3 378 681.8 371.5C727.3 365 772.7 350 818.2 349.7C863.7 349.3 909.3 363.7 954.8 363.3C1000.3 363 1045.7 348 1091 347.8C1136.3 347.7 1181.7 362.3 1227.2 366.8C1272.7 371.3 1318.3 365.7 1363.8 369.7C1409.3 373.7 1454.7 387.3 1500 387.5C1545.3 387.7 1590.7 374.3 1636.2 370C1681.7 365.7 1727.3 370.3 1772.8 369.5C1818.3 368.7 1863.7 362.3 1909 357.7C1954.3 353 1999.7 350 2045.2 356.8C2090.7 363.7 2136.3 380.3 2181.8 385C2227.3 389.7 2272.7 382.3 2318.2 372.3C2363.7 362.3 2409.3 349.7 2454.8 340.5C2500.3 331.3 2545.7 325.7 2591 339.8C2636.3 354 2681.7 388 2727.2 404.7C2772.7 421.3 2818.3 420.7 2863.8 405.7C2909.3 390.7 2954.7 361.3 2977.3 346.7L3000 332L3000 541L2977.3 541C2954.7 541 2909.3 541 2863.8 541C2818.3 541 2772.7 541 2727.2 541C2681.7 541 2636.3 541 2591 541C2545.7 541 2500.3 541 2454.8 541C2409.3 541 2363.7 541 2318.2 541C2272.7 541 2227.3 541 2181.8 541C2136.3 541 2090.7 541 2045.2 541C1999.7 541 1954.3 541 1909 541C1863.7 541 1818.3 541 1772.8 541C1727.3 541 1681.7 541 1636.2 541C1590.7 541 1545.3 541 1500 541C1454.7 541 1409.3 541 1363.8 541C1318.3 541 1272.7 541 1227.2 541C1181.7 541 1136.3 541 1091 541C1045.7 541 1000.3 541 954.8 541C909.3 541 863.7 541 818.2 541C772.7 541 727.3 541 681.8 541C636.3 541 590.7 541 545.2 541C499.7 541 454.3 541 409 541C363.7 541 318.3 541 272.8 541C227.3 541 181.7 541 136.2 541C90.7 541 45.3 541 22.7 541L0 541Z" fill="#0f331b"></path><path d="M0 434L22.7 431.5C45.3 429 90.7 424 136.2 416.8C181.7 409.7 227.3 400.3 272.8 397.7C318.3 395 363.7 399 409 400.5C454.3 402 499.7 401 545.2 405.7C590.7 410.3 636.3 420.7 681.8 415.3C727.3 410 772.7 389 818.2 387.7C863.7 386.3 909.3 404.7 954.8 408.8C1000.3 413 1045.7 403 1091 395.2C1136.3 387.3 1181.7 381.7 1227.2 387.7C1272.7 393.7 1318.3 411.3 1363.8 418.2C1409.3 425 1454.7 421 1500 415C1545.3 409 1590.7 401 1636.2 389C1681.7 377 1727.3 361 1772.8 358.5C1818.3 356 1863.7 367 1909 380.8C1954.3 394.7 1999.7 411.3 2045.2 414C2090.7 416.7 2136.3 405.3 2181.8 403.3C2227.3 401.3 2272.7 408.7 2318.2 407C2363.7 405.3 2409.3 394.7 2454.8 384.2C2500.3 373.7 2545.7 363.3 2591 366.3C2636.3 369.3 2681.7 385.7 2727.2 384.7C2772.7 383.7 2818.3 365.3 2863.8 370.8C2909.3 376.3 2954.7 405.7 2977.3 420.3L3000 435L3000 541L2977.3 541C2954.7 541 2909.3 541 2863.8 541C2818.3 541 2772.7 541 2727.2 541C2681.7 541 2636.3 541 2591 541C2545.7 541 2500.3 541 2454.8 541C2409.3 541 2363.7 541 2318.2 541C2272.7 541 2227.3 541 2181.8 541C2136.3 541 2090.7 541 2045.2 541C1999.7 541 1954.3 541 1909 541C1863.7 541 1818.3 541 1772.8 541C1727.3 541 1681.7 541 1636.2 541C1590.7 541 1545.3 541 1500 541C1454.7 541 1409.3 541 1363.8 541C1318.3 541 1272.7 541 1227.2 541C1181.7 541 1136.3 541 1091 541C1045.7 541 1000.3 541 954.8 541C909.3 541 863.7 541 818.2 541C772.7 541 727.3 541 681.8 541C636.3 541 590.7 541 545.2 541C499.7 541 454.3 541 409 541C363.7 541 318.3 541 272.8 541C227.3 541 181.7 541 136.2 541C90.7 541 45.3 541 22.7 541L0 541Z" fill="#1c4b2b"></path><path d="M0 432L22.7 425.2C45.3 418.3 90.7 404.7 136.2 394.8C181.7 385 227.3 379 272.8 381.5C318.3 384 363.7 395 409 396.2C454.3 397.3 499.7 388.7 545.2 394C590.7 399.3 636.3 418.7 681.8 427.8C727.3 437 772.7 436 818.2 432.8C863.7 429.7 909.3 424.3 954.8 419.7C1000.3 415 1045.7 411 1091 413.3C1136.3 415.7 1181.7 424.3 1227.2 420C1272.7 415.7 1318.3 398.3 1363.8 394.3C1409.3 390.3 1454.7 399.7 1500 399.2C1545.3 398.7 1590.7 388.3 1636.2 391C1681.7 393.7 1727.3 409.3 1772.8 418.3C1818.3 427.3 1863.7 429.7 1909 421.3C1954.3 413 1999.7 394 2045.2 390.2C2090.7 386.3 2136.3 397.7 2181.8 402C2227.3 406.3 2272.7 403.7 2318.2 399.3C2363.7 395 2409.3 389 2454.8 397C2500.3 405 2545.7 427 2591 432.7C2636.3 438.3 2681.7 427.7 2727.2 424.2C2772.7 420.7 2818.3 424.3 2863.8 422.5C2909.3 420.7 2954.7 413.3 2977.3 409.7L3000 406L3000 541L2977.3 541C2954.7 541 2909.3 541 2863.8 541C2818.3 541 2772.7 541 2727.2 541C2681.7 541 2636.3 541 2591 541C2545.7 541 2500.3 541 2454.8 541C2409.3 541 2363.7 541 2318.2 541C2272.7 541 2227.3 541 2181.8 541C2136.3 541 2090.7 541 2045.2 541C1999.7 541 1954.3 541 1909 541C1863.7 541 1818.3 541 1772.8 541C1727.3 541 1681.7 541 1636.2 541C1590.7 541 1545.3 541 1500 541C1454.7 541 1409.3 541 1363.8 541C1318.3 541 1272.7 541 1227.2 541C1181.7 541 1136.3 541 1091 541C1045.7 541 1000.3 541 954.8 541C909.3 541 863.7 541 818.2 541C772.7 541 727.3 541 681.8 541C636.3 541 590.7 541 545.2 541C499.7 541 454.3 541 409 541C363.7 541 318.3 541 272.8 541C227.3 541 181.7 541 136.2 541C90.7 541 45.3 541 22.7 541L0 541Z" fill="#2a653b"></path><path d="M0 451L22.7 453.3C45.3 455.7 90.7 460.3 136.2 458C181.7 455.7 227.3 446.3 272.8 441.2C318.3 436 363.7 435 409 432.5C454.3 430 499.7 426 545.2 421.5C590.7 417 636.3 412 681.8 409.2C727.3 406.3 772.7 405.7 818.2 409C863.7 412.3 909.3 419.7 954.8 426.7C1000.3 433.7 1045.7 440.3 1091 435.7C1136.3 431 1181.7 415 1227.2 413.8C1272.7 412.7 1318.3 426.3 1363.8 425.8C1409.3 425.3 1454.7 410.7 1500 408.5C1545.3 406.3 1590.7 416.7 1636.2 423.7C1681.7 430.7 1727.3 434.3 1772.8 428.8C1818.3 423.3 1863.7 408.7 1909 401.3C1954.3 394 1999.7 394 2045.2 397.5C2090.7 401 2136.3 408 2181.8 416.2C2227.3 424.3 2272.7 433.7 2318.2 434.8C2363.7 436 2409.3 429 2454.8 424.8C2500.3 420.7 2545.7 419.3 2591 418.7C2636.3 418 2681.7 418 2727.2 420.5C2772.7 423 2818.3 428 2863.8 425.3C2909.3 422.7 2954.7 412.3 2977.3 407.2L3000 402L3000 541L2977.3 541C2954.7 541 2909.3 541 2863.8 541C2818.3 541 2772.7 541 2727.2 541C2681.7 541 2636.3 541 2591 541C2545.7 541 2500.3 541 2454.8 541C2409.3 541 2363.7 541 2318.2 541C2272.7 541 2227.3 541 2181.8 541C2136.3 541 2090.7 541 2045.2 541C1999.7 541 1954.3 541 1909 541C1863.7 541 1818.3 541 1772.8 541C1727.3 541 1681.7 541 1636.2 541C1590.7 541 1545.3 541 1500 541C1454.7 541 1409.3 541 1363.8 541C1318.3 541 1272.7 541 1227.2 541C1181.7 541 1136.3 541 1091 541C1045.7 541 1000.3 541 954.8 541C909.3 541 863.7 541 818.2 541C772.7 541 727.3 541 681.8 541C636.3 541 590.7 541 545.2 541C499.7 541 454.3 541 409 541C363.7 541 318.3 541 272.8 541C227.3 541 181.7 541 136.2 541C90.7 541 45.3 541 22.7 541L0 541Z" fill="#39804c"></path><path d="M0 443L22.7 441.7C45.3 440.3 90.7 437.7 136.2 436.8C181.7 436 227.3 437 272.8 440C318.3 443 363.7 448 409 453.2C454.3 458.3 499.7 463.7 545.2 468.7C590.7 473.7 636.3 478.3 681.8 472.8C727.3 467.3 772.7 451.7 818.2 450.2C863.7 448.7 909.3 461.3 954.8 458.5C1000.3 455.7 1045.7 437.3 1091 438.5C1136.3 439.7 1181.7 460.3 1227.2 468C1272.7 475.7 1318.3 470.3 1363.8 466.5C1409.3 462.7 1454.7 460.3 1500 454.7C1545.3 449 1590.7 440 1636.2 440.3C1681.7 440.7 1727.3 450.3 1772.8 458.5C1818.3 466.7 1863.7 473.3 1909 474C1954.3 474.7 1999.7 469.3 2045.2 468C2090.7 466.7 2136.3 469.3 2181.8 465.7C2227.3 462 2272.7 452 2318.2 444.5C2363.7 437 2409.3 432 2454.8 439C2500.3 446 2545.7 465 2591 465.8C2636.3 466.7 2681.7 449.3 2727.2 443.3C2772.7 437.3 2818.3 442.7 2863.8 448.8C2909.3 455 2954.7 462 2977.3 465.5L3000 469L3000 541L2977.3 541C2954.7 541 2909.3 541 2863.8 541C2818.3 541 2772.7 541 2727.2 541C2681.7 541 2636.3 541 2591 541C2545.7 541 2500.3 541 2454.8 541C2409.3 541 2363.7 541 2318.2 541C2272.7 541 2227.3 541 2181.8 541C2136.3 541 2090.7 541 2045.2 541C1999.7 541 1954.3 541 1909 541C1863.7 541 1818.3 541 1772.8 541C1727.3 541 1681.7 541 1636.2 541C1590.7 541 1545.3 541 1500 541C1454.7 541 1409.3 541 1363.8 541C1318.3 541 1272.7 541 1227.2 541C1181.7 541 1136.3 541 1091 541C1045.7 541 1000.3 541 954.8 541C909.3 541 863.7 541 818.2 541C772.7 541 727.3 541 681.8 541C636.3 541 590.7 541 545.2 541C499.7 541 454.3 541 409 541C363.7 541 318.3 541 272.8 541C227.3 541 181.7 541 136.2 541C90.7 541 45.3 541 22.7 541L0 541Z" fill="#499c5e"></path><path d="M0 483L22.7 481.3C45.3 479.7 90.7 476.3 136.2 478.8C181.7 481.3 227.3 489.7 272.8 493.8C318.3 498 363.7 498 409 493.2C454.3 488.3 499.7 478.7 545.2 471.3C590.7 464 636.3 459 681.8 457.2C727.3 455.3 772.7 456.7 818.2 461.5C863.7 466.3 909.3 474.7 954.8 478.8C1000.3 483 1045.7 483 1091 479.7C1136.3 476.3 1181.7 469.7 1227.2 468.2C1272.7 466.7 1318.3 470.3 1363.8 469.3C1409.3 468.3 1454.7 462.7 1500 462.7C1545.3 462.7 1590.7 468.3 1636.2 467C1681.7 465.7 1727.3 457.3 1772.8 459.8C1818.3 462.3 1863.7 475.7 1909 477C1954.3 478.3 1999.7 467.7 2045.2 466.3C2090.7 465 2136.3 473 2181.8 478.8C2227.3 484.7 2272.7 488.3 2318.2 483.5C2363.7 478.7 2409.3 465.3 2454.8 465.2C2500.3 465 2545.7 478 2591 485C2636.3 492 2681.7 493 2727.2 493.7C2772.7 494.3 2818.3 494.7 2863.8 491.5C2909.3 488.3 2954.7 481.7 2977.3 478.3L3000 475L3000 541L2977.3 541C2954.7 541 2909.3 541 2863.8 541C2818.3 541 2772.7 541 2727.2 541C2681.7 541 2636.3 541 2591 541C2545.7 541 2500.3 541 2454.8 541C2409.3 541 2363.7 541 2318.2 541C2272.7 541 2227.3 541 2181.8 541C2136.3 541 2090.7 541 2045.2 541C1999.7 541 1954.3 541 1909 541C1863.7 541 1818.3 541 1772.8 541C1727.3 541 1681.7 541 1636.2 541C1590.7 541 1545.3 541 1500 541C1454.7 541 1409.3 541 1363.8 541C1318.3 541 1272.7 541 1227.2 541C1181.7 541 1136.3 541 1091 541C1045.7 541 1000.3 541 954.8 541C909.3 541 863.7 541 818.2 541C772.7 541 727.3 541 681.8 541C636.3 541 590.7 541 545.2 541C499.7 541 454.3 541 409 541C363.7 541 318.3 541 272.8 541C227.3 541 181.7 541 136.2 541C90.7 541 45.3 541 22.7 541L0 541Z" fill="#5ab970"></path><path d="M0 474L22.7 477.7C45.3 481.3 90.7 488.7 136.2 491.5C181.7 494.3 227.3 492.7 272.8 494.3C318.3 496 363.7 501 409 502C454.3 503 499.7 500 545.2 498.8C590.7 497.7 636.3 498.3 681.8 501.3C727.3 504.3 772.7 509.7 818.2 511.5C863.7 513.3 909.3 511.7 954.8 507.2C1000.3 502.7 1045.7 495.3 1091 489.2C1136.3 483 1181.7 478 1227.2 477C1272.7 476 1318.3 479 1363.8 485C1409.3 491 1454.7 500 1500 501.3C1545.3 502.7 1590.7 496.3 1636.2 492.2C1681.7 488 1727.3 486 1772.8 483.3C1818.3 480.7 1863.7 477.3 1909 476.3C1954.3 475.3 1999.7 476.7 2045.2 481C2090.7 485.3 2136.3 492.7 2181.8 495.5C2227.3 498.3 2272.7 496.7 2318.2 492.3C2363.7 488 2409.3 481 2454.8 477C2500.3 473 2545.7 472 2591 474.7C2636.3 477.3 2681.7 483.7 2727.2 485C2772.7 486.3 2818.3 482.7 2863.8 480.7C2909.3 478.7 2954.7 478.3 2977.3 478.2L3000 478L3000 541L2977.3 541C2954.7 541 2909.3 541 2863.8 541C2818.3 541 2772.7 541 2727.2 541C2681.7 541 2636.3 541 2591 541C2545.7 541 2500.3 541 2454.8 541C2409.3 541 2363.7 541 2318.2 541C2272.7 541 2227.3 541 2181.8 541C2136.3 541 2090.7 541 2045.2 541C1999.7 541 1954.3 541 1909 541C1863.7 541 1818.3 541 1772.8 541C1727.3 541 1681.7 541 1636.2 541C1590.7 541 1545.3 541 1500 541C1454.7 541 1409.3 541 1363.8 541C1318.3 541 1272.7 541 1227.2 541C1181.7 541 1136.3 541 1091 541C1045.7 541 1000.3 541 954.8 541C909.3 541 863.7 541 818.2 541C772.7 541 727.3 541 681.8 541C636.3 541 590.7 541 545.2 541C499.7 541 454.3 541 409 541C363.7 541 318.3 541 272.8 541C227.3 541 181.7 541 136.2 541C90.7 541 45.3 541 22.7 541L0 541Z" fill="#6cd782"></path><path d="M0 517L22.7 514.3C45.3 511.7 90.7 506.3 136.2 502.8C181.7 499.3 227.3 497.7 272.8 501.8C318.3 506 363.7 516 409 520.8C454.3 525.7 499.7 525.3 545.2 521.5C590.7 517.7 636.3 510.3 681.8 509C727.3 507.7 772.7 512.3 818.2 512C863.7 511.7 909.3 506.3 954.8 503.2C1000.3 500 1045.7 499 1091 501.8C1136.3 504.7 1181.7 511.3 1227.2 510.7C1272.7 510 1318.3 502 1363.8 498.3C1409.3 494.7 1454.7 495.3 1500 499.3C1545.3 503.3 1590.7 510.7 1636.2 511.2C1681.7 511.7 1727.3 505.3 1772.8 505C1818.3 504.7 1863.7 510.3 1909 513C1954.3 515.7 1999.7 515.3 2045.2 514.7C2090.7 514 2136.3 513 2181.8 511C2227.3 509 2272.7 506 2318.2 504.7C2363.7 503.3 2409.3 503.7 2454.8 505.7C2500.3 507.7 2545.7 511.3 2591 512.5C2636.3 513.7 2681.7 512.3 2727.2 513C2772.7 513.7 2818.3 516.3 2863.8 519.5C2909.3 522.7 2954.7 526.3 2977.3 528.2L3000 530L3000 541L2977.3 541C2954.7 541 2909.3 541 2863.8 541C2818.3 541 2772.7 541 2727.2 541C2681.7 541 2636.3 541 2591 541C2545.7 541 2500.3 541 2454.8 541C2409.3 541 2363.7 541 2318.2 541C2272.7 541 2227.3 541 2181.8 541C2136.3 541 2090.7 541 2045.2 541C1999.7 541 1954.3 541 1909 541C1863.7 541 1818.3 541 1772.8 541C1727.3 541 1681.7 541 1636.2 541C1590.7 541 1545.3 541 1500 541C1454.7 541 1409.3 541 1363.8 541C1318.3 541 1272.7 541 1227.2 541C1181.7 541 1136.3 541 1091 541C1045.7 541 1000.3 541 954.8 541C909.3 541 863.7 541 818.2 541C772.7 541 727.3 541 681.8 541C636.3 541 590.7 541 545.2 541C499.7 541 454.3 541 409 541C363.7 541 318.3 541 272.8 541C227.3 541 181.7 541 136.2 541C90.7 541 45.3 541 22.7 541L0 541Z" fill="#7ef695"></path></svg>